<svg width="107" height="42" viewBox="0 0 107 42" fill="none" xmlns="http://www.w3.org/2000/svg">
<path d="M63.3233 14.4136C63.545 14.4131 63.726 14.4886 63.8663 14.64C64.0182 14.7797 64.0944 14.9604 64.0949 15.182C64.0953 15.392 64.0198 15.573 63.8685 15.725C63.7288 15.8769 63.5481 15.9531 63.3264 15.9536L59.5639 15.9612L59.5851 26.4612C59.5856 26.6828 59.5101 26.8696 59.3588 27.0216C59.219 27.1619 59.0384 27.2323 58.8167 27.2327C58.6067 27.2331 58.4257 27.1635 58.2738 27.0238C58.1218 26.8724 58.0456 26.6859 58.0451 26.4643L58.0239 15.9643L54.2615 15.9719C54.0515 15.9723 53.8705 15.8968 53.7185 15.7455C53.5665 15.5941 53.4903 15.4134 53.4899 15.2034C53.4895 14.9818 53.5649 14.8008 53.7163 14.6605C53.8677 14.5085 54.0484 14.4323 54.2584 14.4319L63.3233 14.4136Z" fill="#1F2041"/>
<path d="M69.8959 14.4003C70.7826 14.3985 71.6171 14.566 72.3995 14.9028C73.1935 15.2395 73.8827 15.699 74.4672 16.2811C75.0634 16.8632 75.5315 17.5506 75.8714 18.3433C76.2113 19.1243 76.3822 19.9581 76.384 20.8448C76.386 21.8831 76.1663 22.8402 75.7247 23.7161C75.2832 24.592 74.6838 25.3282 73.9267 25.9247C73.9267 25.9247 73.9151 25.9364 73.8918 25.9598C73.3326 26.3809 72.7208 26.7147 72.0563 26.961C71.3918 27.1957 70.6803 27.3138 69.922 27.3153C69.0353 27.3171 68.2008 27.1496 67.4185 26.8129C66.6361 26.4761 65.9469 26.0167 65.3507 25.4345C64.7662 24.8524 64.304 24.1708 63.9641 23.3898C63.6242 22.6088 63.4533 21.7692 63.4515 20.8708C63.4495 19.8908 63.646 18.9863 64.041 18.1572C64.436 17.3164 64.977 16.5978 65.6642 16.0014L65.734 15.9312C65.7457 15.9312 65.7632 15.9195 65.7864 15.8961C66.3455 15.4283 66.9748 15.0654 67.6743 14.8073C68.3737 14.5376 69.1143 14.4019 69.8959 14.4003ZM69.9189 25.7753C70.3622 25.7744 70.7821 25.7211 71.1786 25.6153C71.5867 25.4978 71.9713 25.3395 72.3326 25.1404L66.175 17.6803C65.8026 18.1128 65.5119 18.6034 65.303 19.1521C65.0941 19.6892 64.9903 20.2611 64.9915 20.8677C64.9928 21.5444 65.1225 22.18 65.3803 22.7745C65.6382 23.3689 65.9892 23.8932 66.4335 24.3473C66.8894 24.7898 67.4151 25.1387 68.0106 25.3942C68.6061 25.6496 69.2422 25.7767 69.9189 25.7753ZM73.5382 24.1755C73.9456 23.7313 74.2596 23.229 74.4801 22.6686C74.7123 22.0965 74.8278 21.4896 74.8265 20.8479C74.8251 20.1712 74.6955 19.5357 74.4376 18.9412C74.1797 18.3467 73.8229 17.8282 73.367 17.3858C72.9227 16.9317 72.4028 16.5769 71.8073 16.3215C71.2118 16.066 70.5757 15.939 69.899 15.9403C69.4324 15.9413 68.9833 16.0063 68.5519 16.1355C68.1205 16.2531 67.7184 16.4289 67.3455 16.663L73.5382 24.1755Z" fill="#1F2041"/>
<path d="M83.354 21.6357C83.1206 21.6362 82.9221 21.5432 82.7584 21.3569L78.2493 15.591C78.1206 15.4279 78.0677 15.2472 78.0907 15.0488C78.1136 14.8388 78.2066 14.6694 78.3697 14.5407C78.5327 14.4121 78.7135 14.365 78.9119 14.3996C79.1219 14.4225 79.2913 14.5155 79.4199 14.6786L83.35 19.6757L87.1726 14.7505C87.3006 14.5869 87.4637 14.4932 87.662 14.4695C87.872 14.4457 88.0588 14.4978 88.2223 14.6259C88.3859 14.7539 88.4796 14.9228 88.5034 15.1328C88.5271 15.3311 88.475 15.512 88.347 15.6756L83.9484 21.3545C83.7971 21.5415 83.599 21.6352 83.354 21.6357ZM88.2828 27.2608C88.2362 27.2608 88.1603 27.2552 88.0553 27.2437C87.9619 27.2322 87.8511 27.2033 87.7226 27.1569C87.5942 27.0988 87.454 27.0233 87.3022 26.9302C87.162 26.8255 87.0217 26.6858 86.8813 26.5111L83.3547 21.9857L79.5322 26.9284C79.4041 27.092 79.2352 27.1857 79.0252 27.2094C78.8269 27.2332 78.646 27.181 78.4824 27.053C78.3188 26.925 78.2251 26.7619 78.2014 26.5636C78.1777 26.3536 78.2298 26.1669 78.3578 26.0033L82.7563 20.3244C82.896 20.1374 83.0883 20.0437 83.3333 20.0432C83.5899 20.0427 83.7943 20.1356 83.9463 20.322L88.0519 25.5637C88.1104 25.6453 88.163 25.6977 88.2097 25.7209C88.2564 25.7441 88.2915 25.7616 88.3148 25.7732C88.5132 25.7728 88.6766 25.8425 88.8053 25.9822C88.9455 26.1102 89.0217 26.2734 89.0337 26.4717C89.0575 26.6817 88.9995 26.8626 88.8598 27.0146C88.7201 27.1665 88.5453 27.2486 88.3353 27.2606L88.2828 27.2608Z" fill="#1F2041"/>
<path d="M92.7486 27.2517C92.5269 27.2522 92.3401 27.1767 92.1882 27.0254C92.0362 26.874 91.96 26.6875 91.9595 26.4658L91.9366 15.0909C91.9361 14.8809 92.0116 14.6999 92.163 14.5479C92.3143 14.3959 92.5009 14.3197 92.7225 14.3193C92.9325 14.3188 93.1135 14.3943 93.2655 14.5457C93.4174 14.697 93.4936 14.8777 93.4941 15.0877L93.517 26.4627C93.5175 26.6844 93.442 26.8712 93.2907 27.0232C93.1393 27.1751 92.9586 27.2513 92.7486 27.2517Z" fill="#1F2041"/>
<path d="M105.952 27.1901C105.695 27.1906 105.497 27.0919 105.356 26.8938L98.0394 17.3185L98.0579 26.4535C98.0583 26.6635 97.9828 26.8445 97.8314 26.9965C97.6917 27.1368 97.5169 27.2071 97.3069 27.2075C97.1085 27.2079 96.9334 27.1383 96.7814 26.9986C96.6295 26.8472 96.5533 26.6666 96.5529 26.4566L96.5299 15.0991C96.5296 14.9358 96.576 14.7898 96.6691 14.6613C96.7621 14.5328 96.8903 14.445 97.0535 14.398C97.2051 14.3394 97.3567 14.3333 97.5085 14.3796C97.6602 14.426 97.7888 14.5132 97.894 14.6413L105.193 24.2341L105.175 15.0816C105.175 14.8833 105.244 14.7082 105.384 14.5562C105.535 14.4043 105.716 14.3281 105.926 14.3276C106.136 14.3272 106.311 14.4027 106.451 14.5541C106.603 14.7054 106.68 14.8803 106.68 15.0786L106.703 26.4361C106.703 26.5994 106.657 26.7453 106.564 26.8739C106.471 27.0024 106.348 27.096 106.197 27.1546C106.08 27.1782 105.999 27.19 105.952 27.1901Z" fill="#1F2041"/>
<path d="M21.0162 28.1896C20.3692 28.1909 19.8387 27.6626 19.8374 27.0155C19.8283 22.4861 16.1149 18.7877 11.5855 18.7969C10.9385 18.7982 10.408 18.2698 10.4067 17.6228C10.4054 16.9757 10.9337 16.4452 11.5808 16.4439C17.4337 16.4321 22.1785 21.1578 22.1903 27.0108C22.1916 27.6578 21.6633 28.1883 21.0162 28.1896Z" fill="url(#paint0_linear_1_1087)"/>
<path d="M31.5829 17.5799C31.5842 18.227 31.0559 18.7575 30.4088 18.7588C27.6147 18.7644 25.1175 20.1812 23.6513 22.3313C23.3261 21.5084 22.9422 20.7444 22.4702 20.0395C24.4069 17.8003 27.257 16.4122 30.4041 16.4059C31.0511 16.4045 31.5816 16.9329 31.5829 17.5799Z" fill="url(#paint1_linear_1_1087)"/>
<path d="M21.0416 41.1305C10.0122 41.1527 1.02355 32.2002 1.00129 21.1709C0.979038 10.1415 9.93151 1.1528 20.9609 1.13054C31.9903 1.10829 40.979 10.0608 41.0012 21.0901C41.0235 32.1195 32.071 41.1082 21.0416 41.1305ZM20.9656 3.48348C11.2304 3.50312 3.33459 11.4308 3.35423 21.1661C3.37387 30.9014 11.3016 38.7972 21.0369 38.7775C30.7721 38.7579 38.6679 30.8302 38.6483 21.0949C38.6286 11.3596 30.7009 3.46384 20.9656 3.48348Z" fill="url(#paint2_linear_1_1087)"/>
<defs>
<linearGradient id="paint0_linear_1_1087" x1="16.2866" y1="16.4344" x2="16.3104" y2="28.1991" gradientUnits="userSpaceOnUse">
<stop stop-color="#BC9CFF"/>
<stop offset="1" stop-color="#8BA4F9"/>
</linearGradient>
<linearGradient id="paint1_linear_1_1087" x1="27.0217" y1="16.4127" x2="27.0336" y2="22.3244" gradientUnits="userSpaceOnUse">
<stop stop-color="#6FCF97"/>
<stop offset="1" stop-color="#66D2EA"/>
</linearGradient>
<linearGradient id="paint2_linear_1_1087" x1="20.9609" y1="1.13054" x2="21.0416" y2="41.1305" gradientUnits="userSpaceOnUse">
<stop stop-color="#BC9CFF"/>
<stop offset="1" stop-color="#8BA4F9"/>
</linearGradient>
</defs>
</svg>
